<svg width="360" height="112" viewBox="0 0 360 112" fill="none" xmlns="http://www.w3.org/2000/svg" role="img" aria-labelledby="title desc">
  <title id="title">VILPU logo</title>
  <desc id="desc">Minimal medical location mark with VILPU text</desc>
  <rect width="360" height="112" rx="18" fill="transparent"/>
  <path d="M58 8C31.5 8 10 29.4 10 55.8C10 86.9 58 106 58 106C58 106 106 86.9 106 55.8C106 29.4 84.5 8 58 8Z" fill="#E8F5EF" stroke="#16A34A" stroke-width="7" stroke-linejoin="round"/>
  <path d="M35 66C49 54 67 53 82 42" stroke="#0D2B45" stroke-width="7" stroke-linecap="round"/>
  <path d="M43 73C57 62 72 62 87 50" stroke="#0D2B45" stroke-width="5" stroke-linecap="round" opacity=".92"/>
  <circle cx="58" cy="82" r="8" fill="#0D2B45"/>
  <circle cx="58" cy="82" r="3.5" fill="#E8F5EF"/>
  <path d="M45 31H71V61H45V31Z" fill="#0D2B45"/>
  <path d="M52 24H64V61H52V24Z" fill="#0D2B45"/>
  <path d="M55 29H61V42H55V29Z" fill="#6ED07F"/>
  <path d="M50 34H66V40H50V34Z" fill="#6ED07F"/>
  <path d="M30 49H43V61H30V49Z" fill="#0D2B45"/>
  <path d="M73 47H86V61H73V47Z" fill="#0D2B45"/>
  <path d="M34 53H39M77 51H82M34 58H39M77 57H82" stroke="#E8F5EF" stroke-width="2" stroke-linecap="round"/>
  <ellipse cx="58" cy="101" rx="37" ry="8" stroke="#0D2B45" stroke-width="3" opacity=".9"/>
  <text x="128" y="58" fill="#0D2B45" font-family="Poppins, Inter, Arial, sans-serif" font-size="38" font-weight="700" letter-spacing="5">VILPU</text>
  <text x="254" y="58" fill="#16A34A" font-family="Poppins, Inter, Arial, sans-serif" font-size="38" font-weight="700" letter-spacing="2">ВИЛПУ</text>
  <text x="132" y="82" fill="#0D2B45" font-family="Poppins, Inter, Arial, sans-serif" font-size="11" font-weight="600" letter-spacing="4">ELIGE MEJOR. VIVE MEJOR.</text>
</svg>
